<?xml version="1.0" encoding="UTF-8" standalone="no"?>
<!DOCTYPE svg PUBLIC "-//W3C//DTD SVG 1.1//EN"
 "http://www.w3.org/Graphics/SVG/1.1/DTD/svg11.dtd">
<!-- Generated by graphviz version 2.30.1 (20130214.1453)
 -->
<!-- Title: pipeline Pages: 1 -->
<svg width="1236pt" height="492pt"
 viewBox="0.00 0.00 1236.00 492.00" xmlns="http://www.w3.org/2000/svg" xmlns:xlink="http://www.w3.org/1999/xlink">
<g id="graph0" class="graph" transform="scale(1 1) rotate(0) translate(4 488)">
<title>pipeline</title>
<polygon fill="white" stroke="white" points="-4,5 -4,-488 1233,-488 1233,5 -4,5"/>
<text text-anchor="middle" x="614" y="-9" font-family="Times,serif" font-size="25.00">Flipped classroom data model</text>
<g id="clust1" class="cluster"><title>cluster_1</title>
<polygon fill="none" stroke="black" points="8,-134 8,-426 410,-426 410,-134 8,-134"/>
<text text-anchor="middle" x="209" y="-397" font-family="Times,serif" font-size="25.00">Content</text>
</g>
<g id="clust2" class="cluster"><title>cluster_2</title>
<polygon fill="none" stroke="black" points="418,-46 418,-438 738,-438 738,-46 418,-46"/>
<text text-anchor="middle" x="578" y="-409" font-family="Times,serif" font-size="25.00">Users</text>
</g>
<g id="clust3" class="cluster"><title>cluster_3</title>
<polygon fill="none" stroke="black" points="746,-246 746,-476 1220,-476 1220,-246 746,-246"/>
<text text-anchor="middle" x="983" y="-447" font-family="Times,serif" font-size="25.00">Curriculum</text>
</g>
<!-- video -->
<g id="node1" class="node"><title>video</title>
<path fill="#f0fff0" stroke="black" d="M103.174,-304.8C103.174,-304.8 314.826,-304.8 314.826,-304.8 320.826,-304.8 326.826,-310.8 326.826,-316.8 326.826,-316.8 326.826,-367.2 326.826,-367.2 326.826,-373.2 320.826,-379.2 314.826,-379.2 314.826,-379.2 103.174,-379.2 103.174,-379.2 97.1738,-379.2 91.1738,-373.2 91.1738,-367.2 91.1738,-367.2 91.1738,-316.8 91.1738,-316.8 91.1738,-310.8 97.1738,-304.8 103.174,-304.8"/>
<text text-anchor="middle" x="209" y="-361.2" font-family="Times,serif" font-size="14.00">Video</text>
<polyline fill="none" stroke="black" points="91.1738,-354.4 326.826,-354.4 "/>
<text text-anchor="middle" x="209" y="-336.4" font-family="Times,serif" font-size="14.00">Fixed metadata (upload date, length,...)</text>
<polyline fill="none" stroke="black" points="91.1738,-329.6 326.826,-329.6 "/>
<text text-anchor="middle" x="209" y="-311.6" font-family="Times,serif" font-size="14.00">Reviews</text>
</g>
<!-- comment -->
<g id="node2" class="node"><title>comment</title>
<path fill="#ffffe0" stroke="black" d="M28.4023,-142.8C28.4023,-142.8 179.598,-142.8 179.598,-142.8 185.598,-142.8 191.598,-148.8 191.598,-154.8 191.598,-154.8 191.598,-205.2 191.598,-205.2 191.598,-211.2 185.598,-217.2 179.598,-217.2 179.598,-217.2 28.4023,-217.2 28.4023,-217.2 22.4023,-217.2 16.4023,-211.2 16.4023,-205.2 16.4023,-205.2 16.4023,-154.8 16.4023,-154.8 16.4023,-148.8 22.4023,-142.8 28.4023,-142.8"/>
<text text-anchor="middle" x="104" y="-199.2" font-family="Times,serif" font-size="14.00">Comment</text>
<polyline fill="none" stroke="black" points="16.4023,-192.4 191.598,-192.4 "/>
<text text-anchor="middle" x="104" y="-174.4" font-family="Times,serif" font-size="14.00">Textual comment on a video</text>
<polyline fill="none" stroke="black" points="16.4023,-167.6 191.598,-167.6 "/>
<text text-anchor="middle" x="104" y="-149.6" font-family="Times,serif" font-size="14.00">&lt;user&gt;</text>
</g>
<!-- video&#45;&gt;comment -->
<g id="edge1" class="edge"><title>video&#45;&gt;comment</title>
<path fill="none" stroke="#008b45" stroke-width="4" d="M185.174,-304.694C169.856,-281.353 149.842,-250.854 133.519,-225.981"/>
<polygon fill="#008b45" stroke="#008b45" points="136.326,-223.88 127.913,-217.439 130.474,-227.72 136.326,-223.88"/>
</g>
<!-- rating -->
<g id="node3" class="node"><title>rating</title>
<path fill="#ffffe0" stroke="black" d="M221.751,-142.8C221.751,-142.8 390.249,-142.8 390.249,-142.8 396.249,-142.8 402.249,-148.8 402.249,-154.8 402.249,-154.8 402.249,-205.2 402.249,-205.2 402.249,-211.2 396.249,-217.2 390.249,-217.2 390.249,-217.2 221.751,-217.2 221.751,-217.2 215.751,-217.2 209.751,-211.2 209.751,-205.2 209.751,-205.2 209.751,-154.8 209.751,-154.8 209.751,-148.8 215.751,-142.8 221.751,-142.8"/>
<text text-anchor="middle" x="306" y="-199.2" font-family="Times,serif" font-size="14.00">Star rating</text>
<polyline fill="none" stroke="black" points="209.751,-192.4 402.249,-192.4 "/>
<text text-anchor="middle" x="306" y="-174.4" font-family="Times,serif" font-size="14.00">Numerical comment on a video</text>
<polyline fill="none" stroke="black" points="209.751,-167.6 402.249,-167.6 "/>
<text text-anchor="middle" x="306" y="-149.6" font-family="Times,serif" font-size="14.00">&lt;user&gt;</text>
</g>
<!-- video&#45;&gt;rating -->
<g id="edge2" class="edge"><title>video&#45;&gt;rating</title>
<path fill="none" stroke="#008b45" stroke-width="4" d="M231.011,-304.694C245.099,-281.455 263.49,-251.12 278.532,-226.308"/>
<polygon fill="#008b45" stroke="#008b45" points="281.717,-227.805 283.909,-217.439 275.731,-224.176 281.717,-227.805"/>
</g>
<!-- user -->
<g id="node4" class="node"><title>user</title>
<path fill="#ffd39b" stroke="black" d="M479.762,-292.4C479.762,-292.4 676.238,-292.4 676.238,-292.4 682.238,-292.4 688.238,-298.4 688.238,-304.4 688.238,-304.4 688.238,-379.6 688.238,-379.6 688.238,-385.6 682.238,-391.6 676.238,-391.6 676.238,-391.6 479.762,-391.6 479.762,-391.6 473.762,-391.6 467.762,-385.6 467.762,-379.6 467.762,-379.6 467.762,-304.4 467.762,-304.4 467.762,-298.4 473.762,-292.4 479.762,-292.4"/>
<text text-anchor="middle" x="578" y="-373.6" font-family="Times,serif" font-size="14.00">User</text>
<polyline fill="none" stroke="black" points="467.762,-366.8 688.238,-366.8 "/>
<text text-anchor="middle" x="578" y="-348.8" font-family="Times,serif" font-size="14.00">Login data (passwords, auth)</text>
<polyline fill="none" stroke="black" points="467.762,-342 688.238,-342 "/>
<text text-anchor="middle" x="578" y="-324" font-family="Times,serif" font-size="14.00">Editable profile data (image, age, ...)</text>
<polyline fill="none" stroke="black" points="467.762,-317.2 688.238,-317.2 "/>
<text text-anchor="middle" x="578" y="-299.2" font-family="Times,serif" font-size="14.00">&lt;role&gt;</text>
</g>
<!-- role -->
<g id="node5" class="node"><title>role</title>
<path fill="#b3ee3a" stroke="black" d="M437.646,-142.8C437.646,-142.8 718.354,-142.8 718.354,-142.8 724.354,-142.8 730.354,-148.8 730.354,-154.8 730.354,-154.8 730.354,-205.2 730.354,-205.2 730.354,-211.2 724.354,-217.2 718.354,-217.2 718.354,-217.2 437.646,-217.2 437.646,-217.2 431.646,-217.2 425.646,-211.2 425.646,-205.2 425.646,-205.2 425.646,-154.8 425.646,-154.8 425.646,-148.8 431.646,-142.8 437.646,-142.8"/>
<text text-anchor="middle" x="578" y="-199.2" font-family="Times,serif" font-size="14.00">Role</text>
<polyline fill="none" stroke="black" points="425.646,-192.4 730.354,-192.4 "/>
<text text-anchor="middle" x="578" y="-174.4" font-family="Times,serif" font-size="14.00">Description (e.g. &quot;Teacher&quot;)</text>
<polyline fill="none" stroke="black" points="425.646,-167.6 730.354,-167.6 "/>
<text text-anchor="middle" x="578" y="-149.6" font-family="Times,serif" font-size="14.00">maps &lt;permission&gt; to true/false or numerical value</text>
</g>
<!-- user&#45;&gt;role -->
<g id="edge4" class="edge"><title>user:role&#45;&gt;role</title>
<path fill="none" stroke="#008b45" stroke-width="4" d="M578,-291C578,-270.28 578,-247.364 578,-227.835"/>
<polygon fill="#008b45" stroke="#008b45" points="581.5,-227.667 578,-217.667 574.5,-227.667 581.5,-227.667"/>
</g>
<!-- permission -->
<g id="node6" class="node"><title>permission</title>
<path fill="aquamarine" stroke="black" d="M497.371,-55.2C497.371,-55.2 658.629,-55.2 658.629,-55.2 664.629,-55.2 670.629,-61.2 670.629,-67.2 670.629,-67.2 670.629,-92.8 670.629,-92.8 670.629,-98.8 664.629,-104.8 658.629,-104.8 658.629,-104.8 497.371,-104.8 497.371,-104.8 491.371,-104.8 485.371,-98.8 485.371,-92.8 485.371,-92.8 485.371,-67.2 485.371,-67.2 485.371,-61.2 491.371,-55.2 497.371,-55.2"/>
<text text-anchor="middle" x="578" y="-86.8" font-family="Times,serif" font-size="14.00">Permission</text>
<polyline fill="none" stroke="black" points="485.371,-80 670.629,-80 "/>
<text text-anchor="middle" x="578" y="-62" font-family="Times,serif" font-size="14.00">Description (e.g: &quot;rate video&quot;)</text>
</g>
<!-- role&#45;&gt;permission -->
<g id="edge3" class="edge"><title>role:permission&#45;&gt;permission</title>
<path fill="none" stroke="#008b45" stroke-width="4" d="M578,-142C578,-133.342 578,-123.992 578,-115.276"/>
<polygon fill="#008b45" stroke="#008b45" points="581.5,-115.047 578,-105.047 574.5,-115.047 581.5,-115.047"/>
</g>
<!-- topic -->
<g id="node7" class="node"><title>topic</title>
<path fill="#ff7f24" stroke="black" d="M987.982,-267.6C987.982,-267.6 1200.02,-267.6 1200.02,-267.6 1206.02,-267.6 1212.02,-273.6 1212.02,-279.6 1212.02,-279.6 1212.02,-404.4 1212.02,-404.4 1212.02,-410.4 1206.02,-416.4 1200.02,-416.4 1200.02,-416.4 987.982,-416.4 987.982,-416.4 981.982,-416.4 975.982,-410.4 975.982,-404.4 975.982,-404.4 975.982,-279.6 975.982,-279.6 975.982,-273.6 981.982,-267.6 987.982,-267.6"/>
<text text-anchor="middle" x="1094" y="-398.4" font-family="Times,serif" font-size="14.00">Topic</text>
<polyline fill="none" stroke="black" points="975.982,-391.6 1212.02,-391.6 "/>
<text text-anchor="middle" x="1094" y="-373.6" font-family="Times,serif" font-size="14.00">General curricular topic without videos</text>
<polyline fill="none" stroke="black" points="975.982,-366.8 1212.02,-366.8 "/>
<text text-anchor="middle" x="1094" y="-348.8" font-family="Times,serif" font-size="14.00">Title (e.g. &quot;Linear Acceleration&quot;)</text>
<polyline fill="none" stroke="black" points="975.982,-342 1212.02,-342 "/>
<text text-anchor="middle" x="1094" y="-324" font-family="Times,serif" font-size="14.00">Rich HTML description</text>
<polyline fill="none" stroke="black" points="975.982,-317.2 1212.02,-317.2 "/>
<text text-anchor="middle" x="1094" y="-299.2" font-family="Times,serif" font-size="14.00">Parents [&lt;topic&gt;, &lt;topic&gt;, ...]</text>
<polyline fill="none" stroke="black" points="975.982,-292.4 1212.02,-292.4 "/>
<text text-anchor="middle" x="1094" y="-274.4" font-family="Times,serif" font-size="14.00">administrator &lt;user&gt;</text>
</g>
<!-- item -->
<g id="node8" class="node"><title>item</title>
<path fill="#ffffe0" stroke="black" d="M766.29,-255.2C766.29,-255.2 945.71,-255.2 945.71,-255.2 951.71,-255.2 957.71,-261.2 957.71,-267.2 957.71,-267.2 957.71,-416.8 957.71,-416.8 957.71,-422.8 951.71,-428.8 945.71,-428.8 945.71,-428.8 766.29,-428.8 766.29,-428.8 760.29,-428.8 754.29,-422.8 754.29,-416.8 754.29,-416.8 754.29,-267.2 754.29,-267.2 754.29,-261.2 760.29,-255.2 766.29,-255.2"/>
<text text-anchor="middle" x="856" y="-410.8" font-family="Times,serif" font-size="14.00">Item</text>
<polyline fill="none" stroke="black" points="754.29,-404 957.71,-404 "/>
<text text-anchor="middle" x="856" y="-386" font-family="Times,serif" font-size="14.00">Small topic coverable by a video</text>
<polyline fill="none" stroke="black" points="754.29,-379.2 957.71,-379.2 "/>
<text text-anchor="middle" x="856" y="-361.2" font-family="Times,serif" font-size="14.00">Title (e.g. &quot;Free fall experiment&quot;)</text>
<polyline fill="none" stroke="black" points="754.29,-354.4 957.71,-354.4 "/>
<text text-anchor="middle" x="856" y="-336.4" font-family="Times,serif" font-size="14.00">Rich HTML description</text>
<polyline fill="none" stroke="black" points="754.29,-329.6 957.71,-329.6 "/>
<text text-anchor="middle" x="856" y="-311.6" font-family="Times,serif" font-size="14.00">Videos [&lt;video&gt;, &lt;video&gt;, ...]</text>
<polyline fill="none" stroke="black" points="754.29,-304.8 957.71,-304.8 "/>
<text text-anchor="middle" x="856" y="-286.8" font-family="Times,serif" font-size="14.00">Parents [&lt;topic&gt;, &lt;topic&gt;, ...]</text>
<polyline fill="none" stroke="black" points="754.29,-280 957.71,-280 "/>
<text text-anchor="middle" x="856" y="-262" font-family="Times,serif" font-size="14.00">administrator &lt;user&gt;</text>
</g>
</g>
</svg>
