<?xml version="1.0" encoding="UTF-8" standalone="no"?>
<!DOCTYPE svg PUBLIC "-//W3C//DTD SVG 1.1//EN"
 "http://www.w3.org/Graphics/SVG/1.1/DTD/svg11.dtd">
<!-- Generated by graphviz version 2.30.1 (20130214.1453)
 -->
<!-- Title: pipeline Pages: 1 -->
<svg width="1250pt" height="696pt"
 viewBox="0.00 0.00 1250.00 696.00" xmlns="http://www.w3.org/2000/svg" xmlns:xlink="http://www.w3.org/1999/xlink">
<g id="graph0" class="graph" transform="scale(1 1) rotate(0) translate(4 692)">
<title>pipeline</title>
<polygon fill="white" stroke="white" points="-4,5 -4,-692 1247,-692 1247,5 -4,5"/>
<text text-anchor="middle" x="621" y="-9" font-family="Times,serif" font-size="25.00">Flipped classroom data model</text>
<g id="clust1" class="cluster"><title>cluster_1</title>
<polygon fill="none" stroke="black" points="8,-284 8,-680 424,-680 424,-284 8,-284"/>
<text text-anchor="middle" x="216" y="-651" font-family="Times,serif" font-size="25.00">Content</text>
</g>
<g id="clust2" class="cluster"><title>cluster_2</title>
<polygon fill="none" stroke="black" points="432,-46 432,-438 752,-438 752,-46 432,-46"/>
<text text-anchor="middle" x="592" y="-409" font-family="Times,serif" font-size="25.00">Users</text>
</g>
<g id="clust3" class="cluster"><title>cluster_3</title>
<polygon fill="none" stroke="black" points="760,-246 760,-476 1234,-476 1234,-246 760,-246"/>
<text text-anchor="middle" x="997" y="-447" font-family="Times,serif" font-size="25.00">Curriculum</text>
</g>
<!-- video -->
<g id="node1" class="node"><title>video</title>
<path fill="#f0fff0" stroke="black" d="M314.809,-484.6C314.809,-484.6 377.191,-484.6 377.191,-484.6 383.191,-484.6 389.191,-490.6 389.191,-496.6 389.191,-496.6 389.191,-621.4 389.191,-621.4 389.191,-627.4 383.191,-633.4 377.191,-633.4 377.191,-633.4 314.809,-633.4 314.809,-633.4 308.809,-633.4 302.809,-627.4 302.809,-621.4 302.809,-621.4 302.809,-496.6 302.809,-496.6 302.809,-490.6 308.809,-484.6 314.809,-484.6"/>
<text text-anchor="middle" x="346" y="-615.4" font-family="Times,serif" font-size="14.00">Video</text>
<polyline fill="none" stroke="black" points="302.809,-608.6 389.191,-608.6 "/>
<text text-anchor="middle" x="346" y="-590.6" font-family="Times,serif" font-size="14.00">youtube link</text>
<polyline fill="none" stroke="black" points="302.809,-583.8 389.191,-583.8 "/>
<text text-anchor="middle" x="346" y="-565.8" font-family="Times,serif" font-size="14.00">Rich HTML</text>
<polyline fill="none" stroke="black" points="302.809,-559 389.191,-559 "/>
<text text-anchor="middle" x="346" y="-541" font-family="Times,serif" font-size="14.00">Reviews</text>
<polyline fill="none" stroke="black" points="302.809,-534.2 389.191,-534.2 "/>
<text text-anchor="middle" x="346" y="-516.2" font-family="Times,serif" font-size="14.00">&lt;item&gt;</text>
<polyline fill="none" stroke="black" points="302.809,-509.4 389.191,-509.4 "/>
<text text-anchor="middle" x="346" y="-491.4" font-family="Times,serif" font-size="14.00">&lt;user&gt;</text>
</g>
<!-- comment -->
<g id="node2" class="node"><title>comment</title>
<path fill="#ffffe0" stroke="black" d="M28.375,-292.4C28.375,-292.4 193.625,-292.4 193.625,-292.4 199.625,-292.4 205.625,-298.4 205.625,-304.4 205.625,-304.4 205.625,-379.6 205.625,-379.6 205.625,-385.6 199.625,-391.6 193.625,-391.6 193.625,-391.6 28.375,-391.6 28.375,-391.6 22.375,-391.6 16.375,-385.6 16.375,-379.6 16.375,-379.6 16.375,-304.4 16.375,-304.4 16.375,-298.4 22.375,-292.4 28.375,-292.4"/>
<text text-anchor="middle" x="111" y="-373.6" font-family="Times,serif" font-size="14.00">Comment</text>
<polyline fill="none" stroke="black" points="16.375,-366.8 205.625,-366.8 "/>
<text text-anchor="middle" x="111" y="-348.8" font-family="Times,serif" font-size="14.00">Textual comment on a video</text>
<polyline fill="none" stroke="black" points="16.375,-342 205.625,-342 "/>
<text text-anchor="middle" x="111" y="-324" font-family="Times,serif" font-size="14.00">Context (quality, relevance, ...)</text>
<polyline fill="none" stroke="black" points="16.375,-317.2 205.625,-317.2 "/>
<text text-anchor="middle" x="111" y="-299.2" font-family="Times,serif" font-size="14.00">&lt;user&gt;</text>
</g>
<!-- video&#45;&gt;comment -->
<g id="edge1" class="edge"><title>video:review&#45;&gt;comment</title>
<path fill="none" stroke="#008b45" stroke-width="4" d="M302,-547C221.356,-547 164.914,-460.999 135.243,-400.676"/>
<polygon fill="#008b45" stroke="#008b45" points="138.37,-399.103 130.885,-391.604 132.06,-402.133 138.37,-399.103"/>
</g>
<!-- rating -->
<g id="node3" class="node"><title>rating</title>
<path fill="#ffffe0" stroke="black" d="M235.751,-292.4C235.751,-292.4 404.249,-292.4 404.249,-292.4 410.249,-292.4 416.249,-298.4 416.249,-304.4 416.249,-304.4 416.249,-379.6 416.249,-379.6 416.249,-385.6 410.249,-391.6 404.249,-391.6 404.249,-391.6 235.751,-391.6 235.751,-391.6 229.751,-391.6 223.751,-385.6 223.751,-379.6 223.751,-379.6 223.751,-304.4 223.751,-304.4 223.751,-298.4 229.751,-292.4 235.751,-292.4"/>
<text text-anchor="middle" x="320" y="-373.6" font-family="Times,serif" font-size="14.00">Star rating</text>
<polyline fill="none" stroke="black" points="223.751,-366.8 416.249,-366.8 "/>
<text text-anchor="middle" x="320" y="-348.8" font-family="Times,serif" font-size="14.00">Numerical comment on a video</text>
<polyline fill="none" stroke="black" points="223.751,-342 416.249,-342 "/>
<text text-anchor="middle" x="320" y="-324" font-family="Times,serif" font-size="14.00">Context (quality, relevance, ...)</text>
<polyline fill="none" stroke="black" points="223.751,-317.2 416.249,-317.2 "/>
<text text-anchor="middle" x="320" y="-299.2" font-family="Times,serif" font-size="14.00">&lt;user&gt;</text>
</g>
<!-- video&#45;&gt;rating -->
<g id="edge2" class="edge"><title>video:review&#45;&gt;rating</title>
<path fill="none" stroke="#008b45" stroke-width="4" d="M302,-547C243.024,-547 268.033,-461.352 292.95,-401.048"/>
<polygon fill="#008b45" stroke="#008b45" points="296.272,-402.178 296.936,-391.604 289.823,-399.456 296.272,-402.178"/>
</g>
<!-- user -->
<g id="node4" class="node"><title>user</title>
<path fill="#ffd39b" stroke="black" d="M472.762,-292.4C472.762,-292.4 669.238,-292.4 669.238,-292.4 675.238,-292.4 681.238,-298.4 681.238,-304.4 681.238,-304.4 681.238,-379.6 681.238,-379.6 681.238,-385.6 675.238,-391.6 669.238,-391.6 669.238,-391.6 472.762,-391.6 472.762,-391.6 466.762,-391.6 460.762,-385.6 460.762,-379.6 460.762,-379.6 460.762,-304.4 460.762,-304.4 460.762,-298.4 466.762,-292.4 472.762,-292.4"/>
<text text-anchor="middle" x="571" y="-373.6" font-family="Times,serif" font-size="14.00">User</text>
<polyline fill="none" stroke="black" points="460.762,-366.8 681.238,-366.8 "/>
<text text-anchor="middle" x="571" y="-348.8" font-family="Times,serif" font-size="14.00">Login data (passwords, auth)</text>
<polyline fill="none" stroke="black" points="460.762,-342 681.238,-342 "/>
<text text-anchor="middle" x="571" y="-324" font-family="Times,serif" font-size="14.00">Editable profile data (image, age, ...)</text>
<polyline fill="none" stroke="black" points="460.762,-317.2 681.238,-317.2 "/>
<text text-anchor="middle" x="571" y="-299.2" font-family="Times,serif" font-size="14.00">&lt;role&gt;</text>
</g>
<!-- video&#45;&gt;user -->
<g id="edge3" class="edge"><title>video:user&#45;&gt;user</title>
<path fill="none" stroke="#008b45" stroke-width="4" d="M390,-497C452.017,-497 503.607,-443.908 535.634,-400.07"/>
<polygon fill="#008b45" stroke="#008b45" points="538.627,-401.901 541.58,-391.727 532.926,-397.839 538.627,-401.901"/>
</g>
<!-- item -->
<g id="node8" class="node"><title>item</title>
<path fill="#ffffe0" stroke="black" d="M780.29,-255.2C780.29,-255.2 959.71,-255.2 959.71,-255.2 965.71,-255.2 971.71,-261.2 971.71,-267.2 971.71,-267.2 971.71,-416.8 971.71,-416.8 971.71,-422.8 965.71,-428.8 959.71,-428.8 959.71,-428.8 780.29,-428.8 780.29,-428.8 774.29,-428.8 768.29,-422.8 768.29,-416.8 768.29,-416.8 768.29,-267.2 768.29,-267.2 768.29,-261.2 774.29,-255.2 780.29,-255.2"/>
<text text-anchor="middle" x="870" y="-410.8" font-family="Times,serif" font-size="14.00">Item</text>
<polyline fill="none" stroke="black" points="768.29,-404 971.71,-404 "/>
<text text-anchor="middle" x="870" y="-386" font-family="Times,serif" font-size="14.00">Small topic coverable by a video</text>
<polyline fill="none" stroke="black" points="768.29,-379.2 971.71,-379.2 "/>
<text text-anchor="middle" x="870" y="-361.2" font-family="Times,serif" font-size="14.00">Title (e.g. &quot;Free fall experiment&quot;)</text>
<polyline fill="none" stroke="black" points="768.29,-354.4 971.71,-354.4 "/>
<text text-anchor="middle" x="870" y="-336.4" font-family="Times,serif" font-size="14.00">Rich HTML description</text>
<polyline fill="none" stroke="black" points="768.29,-329.6 971.71,-329.6 "/>
<text text-anchor="middle" x="870" y="-311.6" font-family="Times,serif" font-size="14.00">Videos [&lt;video&gt;, &lt;video&gt;, ...]</text>
<polyline fill="none" stroke="black" points="768.29,-304.8 971.71,-304.8 "/>
<text text-anchor="middle" x="870" y="-286.8" font-family="Times,serif" font-size="14.00">Parents [&lt;topic&gt;, &lt;topic&gt;, ...]</text>
<polyline fill="none" stroke="black" points="768.29,-280 971.71,-280 "/>
<text text-anchor="middle" x="870" y="-262" font-family="Times,serif" font-size="14.00">administrator &lt;user&gt;</text>
</g>
<!-- video&#45;&gt;item -->
<g id="edge4" class="edge"><title>video:item&#45;&gt;item</title>
<path fill="none" stroke="#008b45" stroke-width="4" d="M390,-522C471.973,-522 683.812,-514.839 756,-476 774.412,-466.094 791.157,-451.916 805.802,-436.476"/>
<polygon fill="#008b45" stroke="#008b45" points="808.651,-438.547 812.821,-428.808 803.487,-433.821 808.651,-438.547"/>
</g>
<!-- role -->
<g id="node5" class="node"><title>role</title>
<path fill="#b3ee3a" stroke="black" d="M451.646,-142.8C451.646,-142.8 732.354,-142.8 732.354,-142.8 738.354,-142.8 744.354,-148.8 744.354,-154.8 744.354,-154.8 744.354,-205.2 744.354,-205.2 744.354,-211.2 738.354,-217.2 732.354,-217.2 732.354,-217.2 451.646,-217.2 451.646,-217.2 445.646,-217.2 439.646,-211.2 439.646,-205.2 439.646,-205.2 439.646,-154.8 439.646,-154.8 439.646,-148.8 445.646,-142.8 451.646,-142.8"/>
<text text-anchor="middle" x="592" y="-199.2" font-family="Times,serif" font-size="14.00">Role</text>
<polyline fill="none" stroke="black" points="439.646,-192.4 744.354,-192.4 "/>
<text text-anchor="middle" x="592" y="-174.4" font-family="Times,serif" font-size="14.00">Description (e.g. &quot;Teacher&quot;)</text>
<polyline fill="none" stroke="black" points="439.646,-167.6 744.354,-167.6 "/>
<text text-anchor="middle" x="592" y="-149.6" font-family="Times,serif" font-size="14.00">maps &lt;permission&gt; to true/false or numerical value</text>
</g>
<!-- user&#45;&gt;role -->
<g id="edge6" class="edge"><title>user:role&#45;&gt;role</title>
<path fill="none" stroke="#008b45" stroke-width="4" d="M571,-291C571,-269.808 574.807,-246.721 579.179,-227.194"/>
<polygon fill="#008b45" stroke="#008b45" points="582.615,-227.872 581.5,-217.336 575.802,-226.267 582.615,-227.872"/>
</g>
<!-- permission -->
<g id="node6" class="node"><title>permission</title>
<path fill="aquamarine" stroke="black" d="M511.371,-55.2C511.371,-55.2 672.629,-55.2 672.629,-55.2 678.629,-55.2 684.629,-61.2 684.629,-67.2 684.629,-67.2 684.629,-92.8 684.629,-92.8 684.629,-98.8 678.629,-104.8 672.629,-104.8 672.629,-104.8 511.371,-104.8 511.371,-104.8 505.371,-104.8 499.371,-98.8 499.371,-92.8 499.371,-92.8 499.371,-67.2 499.371,-67.2 499.371,-61.2 505.371,-55.2 511.371,-55.2"/>
<text text-anchor="middle" x="592" y="-86.8" font-family="Times,serif" font-size="14.00">Permission</text>
<polyline fill="none" stroke="black" points="499.371,-80 684.629,-80 "/>
<text text-anchor="middle" x="592" y="-62" font-family="Times,serif" font-size="14.00">Description (e.g: &quot;rate video&quot;)</text>
</g>
<!-- role&#45;&gt;permission -->
<g id="edge5" class="edge"><title>role:permission&#45;&gt;permission</title>
<path fill="none" stroke="#008b45" stroke-width="4" d="M592,-142C592,-133.342 592,-123.992 592,-115.276"/>
<polygon fill="#008b45" stroke="#008b45" points="595.5,-115.047 592,-105.047 588.5,-115.047 595.5,-115.047"/>
</g>
<!-- topic -->
<g id="node7" class="node"><title>topic</title>
<path fill="#ff7f24" stroke="black" d="M1001.98,-267.6C1001.98,-267.6 1214.02,-267.6 1214.02,-267.6 1220.02,-267.6 1226.02,-273.6 1226.02,-279.6 1226.02,-279.6 1226.02,-404.4 1226.02,-404.4 1226.02,-410.4 1220.02,-416.4 1214.02,-416.4 1214.02,-416.4 1001.98,-416.4 1001.98,-416.4 995.982,-416.4 989.982,-410.4 989.982,-404.4 989.982,-404.4 989.982,-279.6 989.982,-279.6 989.982,-273.6 995.982,-267.6 1001.98,-267.6"/>
<text text-anchor="middle" x="1108" y="-398.4" font-family="Times,serif" font-size="14.00">Topic</text>
<polyline fill="none" stroke="black" points="989.982,-391.6 1226.02,-391.6 "/>
<text text-anchor="middle" x="1108" y="-373.6" font-family="Times,serif" font-size="14.00">General curricular topic without videos</text>
<polyline fill="none" stroke="black" points="989.982,-366.8 1226.02,-366.8 "/>
<text text-anchor="middle" x="1108" y="-348.8" font-family="Times,serif" font-size="14.00">Title (e.g. &quot;Linear Acceleration&quot;)</text>
<polyline fill="none" stroke="black" points="989.982,-342 1226.02,-342 "/>
<text text-anchor="middle" x="1108" y="-324" font-family="Times,serif" font-size="14.00">Rich HTML description</text>
<polyline fill="none" stroke="black" points="989.982,-317.2 1226.02,-317.2 "/>
<text text-anchor="middle" x="1108" y="-299.2" font-family="Times,serif" font-size="14.00">Parents [&lt;topic&gt;, &lt;topic&gt;, ...]</text>
<polyline fill="none" stroke="black" points="989.982,-292.4 1226.02,-292.4 "/>
<text text-anchor="middle" x="1108" y="-274.4" font-family="Times,serif" font-size="14.00">administrator &lt;user&gt;</text>
</g>
</g>
</svg>
