<?xml version="1.0" encoding="UTF-8" standalone="no"?>
<!DOCTYPE svg PUBLIC "-//W3C//DTD SVG 1.1//EN"
 "http://www.w3.org/Graphics/SVG/1.1/DTD/svg11.dtd">
<!-- Generated by graphviz version 2.30.1 (20130214.1453)
 -->
<!-- Title: foo Pages: 1 -->
<svg width="512pt" height="94pt"
 viewBox="0.00 0.00 512.00 94.44" xmlns="http://www.w3.org/2000/svg" xmlns:xlink="http://www.w3.org/1999/xlink">
<g id="graph0" class="graph" transform="scale(1 1) rotate(0) translate(4 90.4425)">
<title>foo</title>
<!-- a -->
<g id="node1" class="node"><title>a</title>
<polygon fill="none" stroke="black" points="0,-26.4425 0,-62.4425 54,-62.4425 54,-26.4425 0,-26.4425"/>
<text text-anchor="middle" x="16" y="-38.9425" font-family="Times,serif" font-size="14.00">12</text>
<polyline fill="none" stroke="black" points="32,-26.6425 32,-62.4425 "/>
<text text-anchor="middle" x="42.75" y="-38.9425" font-family="Times,serif" font-size="14.00"> </text>
</g>
<!-- b -->
<g id="node2" class="node"><title>b</title>
<polygon fill="none" stroke="black" points="90,-26.4425 90,-62.4425 144,-62.4425 144,-26.4425 90,-26.4425"/>
<text text-anchor="middle" x="106" y="-38.9425" font-family="Times,serif" font-size="14.00">70</text>
<polyline fill="none" stroke="black" points="122,-26.6425 122,-62.4425 "/>
<text text-anchor="middle" x="132.75" y="-38.9425" font-family="Times,serif" font-size="14.00"> </text>
</g>
<!-- a&#45;&gt;b -->
<g id="edge1" class="edge"><title>a:ref:c&#45;&gt;b:data</title>
<path fill="none" stroke="black" d="M52.7216,-44.4425C59.3301,-44.4425 68.5383,-44.4425 77.8699,-44.4425"/>
<ellipse fill="black" stroke="black" cx="47.8" cy="-44.4425" rx="4.8" ry="4.8"/>
<polygon fill="black" stroke="black" points="90,-44.4425 78,-49.8426 84,-44.4425 78,-44.4426 78,-44.4426 78,-44.4426 84,-44.4425 78,-39.0426 90,-44.4425 90,-44.4425"/>
</g>
<!-- c -->
<g id="node3" class="node"><title>c</title>
<polygon fill="none" stroke="black" points="180,-26.4425 180,-62.4425 234,-62.4425 234,-26.4425 180,-26.4425"/>
<text text-anchor="middle" x="194" y="-38.9425" font-family="Times,serif" font-size="14.00">7</text>
<polyline fill="none" stroke="black" points="208,-26.6425 208,-62.4425 "/>
<text text-anchor="middle" x="220.75" y="-38.9425" font-family="Times,serif" font-size="14.00"> </text>
</g>
<!-- b&#45;&gt;c -->
<g id="edge2" class="edge"><title>b:ref:c&#45;&gt;c:data</title>
<path fill="none" stroke="black" d="M142.722,-44.4425C149.33,-44.4425 158.538,-44.4425 167.87,-44.4425"/>
<ellipse fill="black" stroke="black" cx="137.8" cy="-44.4425" rx="4.8" ry="4.8"/>
<polygon fill="black" stroke="black" points="180,-44.4425 168,-49.8426 174,-44.4425 168,-44.4426 168,-44.4426 168,-44.4426 174,-44.4425 168,-39.0426 180,-44.4425 180,-44.4425"/>
</g>
<!-- d -->
<g id="node4" class="node"><title>d</title>
<polygon fill="none" stroke="black" points="270,-50.4425 270,-86.4425 324,-86.4425 324,-50.4425 270,-50.4425"/>
<text text-anchor="middle" x="286" y="-62.9425" font-family="Times,serif" font-size="14.00">30</text>
<polyline fill="none" stroke="black" points="302,-50.6425 302,-86.4425 "/>
<text text-anchor="middle" x="312.75" y="-62.9425" font-family="Times,serif" font-size="14.00"> </text>
</g>
<!-- c&#45;&gt;d -->
<g id="edge3" class="edge"><title>c:ref:c&#45;&gt;d:data</title>
<path fill="none" stroke="black" d="M228.422,-50.7482C235.285,-56.0813 246.183,-63.3678 257.997,-66.6777"/>
<ellipse fill="black" stroke="black" cx="224.658" cy="-47.5503" rx="4.80002" ry="4.80002"/>
<polygon fill="black" stroke="black" points="270,-68.4425 257.342,-72.0394 264.064,-67.5697 258.128,-66.6969 258.128,-66.6969 258.128,-66.6969 264.064,-67.5697 258.913,-61.3543 270,-68.4425 270,-68.4425"/>
</g>
<!-- e -->
<g id="node5" class="node"><title>e</title>
<polygon fill="none" stroke="black" points="360,-50.4425 360,-86.4425 414,-86.4425 414,-50.4425 360,-50.4425"/>
<text text-anchor="middle" x="376" y="-62.9425" font-family="Times,serif" font-size="14.00">68</text>
<polyline fill="none" stroke="black" points="392,-50.6425 392,-86.4425 "/>
<text text-anchor="middle" x="402.75" y="-62.9425" font-family="Times,serif" font-size="14.00"> </text>
</g>
<!-- d&#45;&gt;e -->
<g id="edge4" class="edge"><title>d:ref:c&#45;&gt;e:data</title>
<path fill="none" stroke="black" d="M322.722,-68.4425C329.33,-68.4425 338.538,-68.4425 347.87,-68.4425"/>
<ellipse fill="black" stroke="black" cx="317.8" cy="-68.4425" rx="4.8" ry="4.8"/>
<polygon fill="black" stroke="black" points="360,-68.4425 348,-73.8426 354,-68.4425 348,-68.4426 348,-68.4426 348,-68.4426 354,-68.4425 348,-63.0426 360,-68.4425 360,-68.4425"/>
</g>
<!-- f -->
<g id="node6" class="node"><title>f</title>
<polygon fill="none" stroke="black" points="450,-26.4425 450,-62.4425 504,-62.4425 504,-26.4425 450,-26.4425"/>
<text text-anchor="middle" x="466" y="-38.9425" font-family="Times,serif" font-size="14.00">37</text>
<polyline fill="none" stroke="black" points="482,-26.6425 482,-62.4425 "/>
<text text-anchor="middle" x="492.75" y="-38.9425" font-family="Times,serif" font-size="14.00"> </text>
</g>
<!-- e&#45;&gt;f -->
<g id="edge5" class="edge"><title>e:ref:c&#45;&gt;f:data</title>
<path fill="none" stroke="black" d="M410.387,-61.8844C416.842,-56.6659 426.879,-49.7055 437.851,-46.376"/>
<ellipse fill="black" stroke="black" cx="406.589" cy="-65.2556" rx="4.80002" ry="4.80002"/>
<polygon fill="black" stroke="black" points="450,-44.4425 438.998,-51.6616 444.075,-45.3856 438.149,-46.3287 438.149,-46.3287 438.149,-46.3287 444.075,-45.3856 437.3,-40.9958 450,-44.4425 450,-44.4425"/>
</g>
<!-- f&#45;&gt;c -->
<g id="edge6" class="edge"><title>f:ref:c&#45;&gt;c:data</title>
<path fill="none" stroke="black" d="M483.712,-41.8624C437.078,-29.1275 229.462,24.8874 198.001,-13.8458"/>
<ellipse fill="black" stroke="black" cx="488.375" cy="-43.1577" rx="4.80001" ry="4.80001"/>
<polygon fill="black" stroke="black" points="194,-25.4425 192.809,-12.3374 195.957,-19.7705 197.914,-14.0985 197.914,-14.0985 197.914,-14.0985 195.957,-19.7705 203.018,-15.8596 194,-25.4425 194,-25.4425"/>
</g>
</g>
</svg>
