<?xml version="1.0" encoding="UTF-8" standalone="no"?>
<!DOCTYPE svg PUBLIC "-//W3C//DTD SVG 1.1//EN"
 "http://www.w3.org/Graphics/SVG/1.1/DTD/svg11.dtd">
<!-- Generated by graphviz version 2.30.1 (20130214.1453)
 -->
<!-- Title: foo Pages: 1 -->
<svg width="602pt" height="44pt"
 viewBox="0.00 0.00 602.00 44.00" xmlns="http://www.w3.org/2000/svg" xmlns:xlink="http://www.w3.org/1999/xlink">
<g id="graph0" class="graph" transform="scale(1 1) rotate(0) translate(4 40)">
<title>foo</title>
<!-- a -->
<g id="node1" class="node"><title>a</title>
<polygon fill="none" stroke="black" points="0,-0 0,-36 54,-36 54,-0 0,-0"/>
<text text-anchor="middle" x="16" y="-12.5" font-family="Times,serif" font-size="14.00">12</text>
<polyline fill="none" stroke="black" points="32,-0.2 32,-36 "/>
<text text-anchor="middle" x="42.75" y="-12.5" font-family="Times,serif" font-size="14.00"> </text>
</g>
<!-- b -->
<g id="node2" class="node"><title>b</title>
<polygon fill="none" stroke="black" points="90,-0 90,-36 144,-36 144,-0 90,-0"/>
<text text-anchor="middle" x="106" y="-12.5" font-family="Times,serif" font-size="14.00">70</text>
<polyline fill="none" stroke="black" points="122,-0.2 122,-36 "/>
<text text-anchor="middle" x="132.75" y="-12.5" font-family="Times,serif" font-size="14.00"> </text>
</g>
<!-- a&#45;&gt;b -->
<g id="edge1" class="edge"><title>a:ref:c&#45;&gt;b:data</title>
<path fill="none" stroke="black" d="M52.7216,-18C59.3301,-18 68.5383,-18 77.8699,-18"/>
<ellipse fill="black" stroke="black" cx="47.8" cy="-18" rx="4.8" ry="4.8"/>
<polygon fill="black" stroke="black" points="90,-18 78,-23.4001 84,-18 78,-18.0001 78,-18.0001 78,-18.0001 84,-18 78,-12.6001 90,-18 90,-18"/>
</g>
<!-- c -->
<g id="node3" class="node"><title>c</title>
<polygon fill="none" stroke="black" points="180,-0 180,-36 234,-36 234,-0 180,-0"/>
<text text-anchor="middle" x="194" y="-12.5" font-family="Times,serif" font-size="14.00">7</text>
<polyline fill="none" stroke="black" points="208,-0.2 208,-36 "/>
<text text-anchor="middle" x="220.75" y="-12.5" font-family="Times,serif" font-size="14.00"> </text>
</g>
<!-- b&#45;&gt;c -->
<g id="edge2" class="edge"><title>b:ref:c&#45;&gt;c:data</title>
<path fill="none" stroke="black" d="M142.722,-18C149.33,-18 158.538,-18 167.87,-18"/>
<ellipse fill="black" stroke="black" cx="137.8" cy="-18" rx="4.8" ry="4.8"/>
<polygon fill="black" stroke="black" points="180,-18 168,-23.4001 174,-18 168,-18.0001 168,-18.0001 168,-18.0001 174,-18 168,-12.6001 180,-18 180,-18"/>
</g>
<!-- d -->
<g id="node4" class="node"><title>d</title>
<polygon fill="none" stroke="black" points="270,-0 270,-36 324,-36 324,-0 270,-0"/>
<text text-anchor="middle" x="286" y="-12.5" font-family="Times,serif" font-size="14.00">30</text>
<polyline fill="none" stroke="black" points="302,-0.2 302,-36 "/>
<text text-anchor="middle" x="312.75" y="-12.5" font-family="Times,serif" font-size="14.00"> </text>
</g>
<!-- c&#45;&gt;d -->
<g id="edge3" class="edge"><title>c:ref:c&#45;&gt;d:data</title>
<path fill="none" stroke="black" d="M230.762,-18C237.792,-18 247.779,-18 257.856,-18"/>
<ellipse fill="black" stroke="black" cx="225.8" cy="-18" rx="4.8" ry="4.8"/>
<polygon fill="black" stroke="black" points="270,-18 258,-23.4001 264,-18 258,-18.0001 258,-18.0001 258,-18.0001 264,-18 258,-12.6001 270,-18 270,-18"/>
</g>
<!-- e -->
<g id="node5" class="node"><title>e</title>
<polygon fill="none" stroke="black" points="360,-0 360,-36 414,-36 414,-0 360,-0"/>
<text text-anchor="middle" x="376" y="-12.5" font-family="Times,serif" font-size="14.00">68</text>
<polyline fill="none" stroke="black" points="392,-0.2 392,-36 "/>
<text text-anchor="middle" x="402.75" y="-12.5" font-family="Times,serif" font-size="14.00"> </text>
</g>
<!-- d&#45;&gt;e -->
<g id="edge4" class="edge"><title>d:ref:c&#45;&gt;e:data</title>
<path fill="none" stroke="black" d="M322.722,-18C329.33,-18 338.538,-18 347.87,-18"/>
<ellipse fill="black" stroke="black" cx="317.8" cy="-18" rx="4.8" ry="4.8"/>
<polygon fill="black" stroke="black" points="360,-18 348,-23.4001 354,-18 348,-18.0001 348,-18.0001 348,-18.0001 354,-18 348,-12.6001 360,-18 360,-18"/>
</g>
<!-- f -->
<g id="node6" class="node"><title>f</title>
<polygon fill="none" stroke="black" points="450,-0 450,-36 504,-36 504,-0 450,-0"/>
<text text-anchor="middle" x="466" y="-12.5" font-family="Times,serif" font-size="14.00">37</text>
<polyline fill="none" stroke="black" points="482,-0.2 482,-36 "/>
<text text-anchor="middle" x="492.75" y="-12.5" font-family="Times,serif" font-size="14.00"> </text>
</g>
<!-- e&#45;&gt;f -->
<g id="edge5" class="edge"><title>e:ref:c&#45;&gt;f:data</title>
<path fill="none" stroke="black" d="M412.722,-18C419.33,-18 428.538,-18 437.87,-18"/>
<ellipse fill="black" stroke="black" cx="407.8" cy="-18" rx="4.8" ry="4.8"/>
<polygon fill="black" stroke="black" points="450,-18 438,-23.4001 444,-18 438,-18.0001 438,-18.0001 438,-18.0001 444,-18 438,-12.6001 450,-18 450,-18"/>
</g>
<!-- g -->
<g id="node7" class="node"><title>g</title>
</g>
<!-- f&#45;&gt;g -->
<g id="edge6" class="edge"><title>f:ref:c&#45;&gt;g</title>
<path fill="none" stroke="black" d="M501.214,-18C508.25,-18 518.906,-18 529.555,-18"/>
<ellipse fill="black" stroke="black" cx="497" cy="-18" rx="4" ry="4"/>
<polygon fill="none" stroke="black" points="539.645,-14 539.645,-22 531.645,-22.0001 531.645,-14.0001 539.645,-14"/>
<polyline fill="none" stroke="black" points="531.645,-18.0001 529.645,-18.0001 "/>
</g>
</g>
</svg>
