<?xml version="1.0" encoding="UTF-8" standalone="no"?>
<!DOCTYPE svg PUBLIC "-//W3C//DTD SVG 1.1//EN"
 "http://www.w3.org/Graphics/SVG/1.1/DTD/svg11.dtd">
<!-- Generated by graphviz version 2.30.1 (20130214.1453)
 -->
<!-- Title: pipeline Pages: 1 -->
<svg width="738pt" height="315pt"
 viewBox="0.00 0.00 738.00 314.80" xmlns="http://www.w3.org/2000/svg" xmlns:xlink="http://www.w3.org/1999/xlink">
<g id="graph0" class="graph" transform="scale(1 1) rotate(0) translate(4 310.8)">
<title>pipeline</title>
<polygon fill="white" stroke="white" points="-4,5 -4,-310.8 735,-310.8 735,5 -4,5"/>
<text text-anchor="middle" x="365" y="-6.8" font-family="Times,serif" font-size="14.00">Flipped classroom data model</text>
<g id="clust1" class="cluster"><title>cluster_1</title>
<polygon fill="none" stroke="black" points="8,-32.8 8,-286.8 260,-286.8 260,-32.8 8,-32.8"/>
<text text-anchor="middle" x="134" y="-257.8" font-family="Times,serif" font-size="25.00">Content</text>
</g>
<g id="clust2" class="cluster"><title>cluster_2</title>
<polygon fill="none" stroke="black" points="268,-144.8 268,-298.8 722,-298.8 722,-144.8 268,-144.8"/>
<text text-anchor="middle" x="495" y="-269.8" font-family="Times,serif" font-size="25.00">Users</text>
</g>
<!-- video -->
<g id="node1" class="node"><title>video</title>
<path fill="#f0fff0" stroke="black" d="M28.1738,-165.6C28.1738,-165.6 239.826,-165.6 239.826,-165.6 245.826,-165.6 251.826,-171.6 251.826,-177.6 251.826,-177.6 251.826,-228 251.826,-228 251.826,-234 245.826,-240 239.826,-240 239.826,-240 28.1738,-240 28.1738,-240 22.1738,-240 16.1738,-234 16.1738,-228 16.1738,-228 16.1738,-177.6 16.1738,-177.6 16.1738,-171.6 22.1738,-165.6 28.1738,-165.6"/>
<text text-anchor="middle" x="134" y="-222" font-family="Times,serif" font-size="14.00">Video</text>
<polyline fill="none" stroke="black" points="16.1738,-215.2 251.826,-215.2 "/>
<text text-anchor="middle" x="134" y="-197.2" font-family="Times,serif" font-size="14.00">Fixed metadata (upload date, length,...)</text>
<polyline fill="none" stroke="black" points="16.1738,-190.4 251.826,-190.4 "/>
<text text-anchor="middle" x="134" y="-172.4" font-family="Times,serif" font-size="14.00">Reviews</text>
</g>
<!-- review -->
<g id="node2" class="node"><title>review</title>
<path fill="#ffffe0" stroke="black" d="M28.1738,-41.6C28.1738,-41.6 239.826,-41.6 239.826,-41.6 245.826,-41.6 251.826,-47.6 251.826,-53.6 251.826,-53.6 251.826,-104 251.826,-104 251.826,-110 245.826,-116 239.826,-116 239.826,-116 28.1738,-116 28.1738,-116 22.1738,-116 16.1738,-110 16.1738,-104 16.1738,-104 16.1738,-53.6 16.1738,-53.6 16.1738,-47.6 22.1738,-41.6 28.1738,-41.6"/>
<text text-anchor="middle" x="134" y="-98" font-family="Times,serif" font-size="14.00">Review</text>
<polyline fill="none" stroke="black" points="16.1738,-91.2 251.826,-91.2 "/>
<text text-anchor="middle" x="134" y="-73.2" font-family="Times,serif" font-size="14.00">Fixed metadata (upload date, length,...)</text>
<polyline fill="none" stroke="black" points="16.1738,-66.4 251.826,-66.4 "/>
<text text-anchor="middle" x="134" y="-48.4" font-family="Times,serif" font-size="14.00">Reviews</text>
</g>
<!-- video&#45;&gt;review -->
<g id="edge1" class="edge"><title>video:review&#45;&gt;review:title</title>
<path fill="none" stroke="#008b45" stroke-width="4" d="M134,-164.8C134,-147.3 134,-140.567 134,-126.936"/>
<polygon fill="#008b45" stroke="#008b45" points="137.5,-126.8 134,-116.8 130.5,-126.8 137.5,-126.8"/>
</g>
<!-- user -->
<g id="node3" class="node"><title>user</title>
<path fill="#f0fff0" stroke="black" d="M505.762,-153.2C505.762,-153.2 702.238,-153.2 702.238,-153.2 708.238,-153.2 714.238,-159.2 714.238,-165.2 714.238,-165.2 714.238,-240.4 714.238,-240.4 714.238,-246.4 708.238,-252.4 702.238,-252.4 702.238,-252.4 505.762,-252.4 505.762,-252.4 499.762,-252.4 493.762,-246.4 493.762,-240.4 493.762,-240.4 493.762,-165.2 493.762,-165.2 493.762,-159.2 499.762,-153.2 505.762,-153.2"/>
<text text-anchor="middle" x="604" y="-234.4" font-family="Times,serif" font-size="14.00">User</text>
<polyline fill="none" stroke="black" points="493.762,-227.6 714.238,-227.6 "/>
<text text-anchor="middle" x="604" y="-209.6" font-family="Times,serif" font-size="14.00">Login data (passwords, auth)</text>
<polyline fill="none" stroke="black" points="493.762,-202.8 714.238,-202.8 "/>
<text text-anchor="middle" x="604" y="-184.8" font-family="Times,serif" font-size="14.00">Editable profile data (image, age, ...)</text>
<polyline fill="none" stroke="black" points="493.762,-178 714.238,-178 "/>
<text text-anchor="middle" x="604" y="-160" font-family="Times,serif" font-size="14.00">Permissions</text>
</g>
<!-- role -->
<g id="node4" class="node"><title>role</title>
<path fill="#ffffe0" stroke="black" d="M287.845,-178C287.845,-178 464.155,-178 464.155,-178 470.155,-178 476.155,-184 476.155,-190 476.155,-190 476.155,-215.6 476.155,-215.6 476.155,-221.6 470.155,-227.6 464.155,-227.6 464.155,-227.6 287.845,-227.6 287.845,-227.6 281.845,-227.6 275.845,-221.6 275.845,-215.6 275.845,-215.6 275.845,-190 275.845,-190 275.845,-184 281.845,-178 287.845,-178"/>
<text text-anchor="middle" x="376" y="-209.6" font-family="Times,serif" font-size="14.00">Role</text>
<polyline fill="none" stroke="black" points="275.845,-202.8 476.155,-202.8 "/>
<text text-anchor="middle" x="376" y="-184.8" font-family="Times,serif" font-size="14.00">Permissions allowed for this role</text>
</g>
</g>
</svg>
