<?xml version="1.0" encoding="UTF-8" standalone="no"?>
<!DOCTYPE svg PUBLIC "-//W3C//DTD SVG 1.1//EN"
 "http://www.w3.org/Graphics/SVG/1.1/DTD/svg11.dtd">
<!-- Generated by graphviz version 2.30.1 (20130214.1453)
 -->
<!-- Title: pipeline Pages: 1 -->
<svg width="1236pt" height="416pt"
 viewBox="0.00 0.00 1236.00 416.00" xmlns="http://www.w3.org/2000/svg" xmlns:xlink="http://www.w3.org/1999/xlink">
<g id="graph0" class="graph" transform="scale(1 1) rotate(0) translate(4 412)">
<title>pipeline</title>
<polygon fill="white" stroke="white" points="-4,5 -4,-412 1233,-412 1233,5 -4,5"/>
<text text-anchor="middle" x="614" y="-9" font-family="Times,serif" font-size="25.00">Flipped classroom data model</text>
<g id="clust1" class="cluster"><title>cluster_1</title>
<polygon fill="none" stroke="black" points="8,-134 8,-388 410,-388 410,-134 8,-134"/>
<text text-anchor="middle" x="209" y="-359" font-family="Times,serif" font-size="25.00">Content</text>
</g>
<g id="clust2" class="cluster"><title>cluster_2</title>
<polygon fill="none" stroke="black" points="418,-46 418,-400 738,-400 738,-46 418,-46"/>
<text text-anchor="middle" x="578" y="-371" font-family="Times,serif" font-size="25.00">Users</text>
</g>
<g id="clust3" class="cluster"><title>cluster_3</title>
<polygon fill="none" stroke="black" points="746,-246 746,-400 1220,-400 1220,-246 746,-246"/>
<text text-anchor="middle" x="983" y="-371" font-family="Times,serif" font-size="25.00">Curriculum</text>
</g>
<!-- video -->
<g id="node1" class="node"><title>video</title>
<path fill="#f0fff0" stroke="black" d="M103.174,-266.8C103.174,-266.8 314.826,-266.8 314.826,-266.8 320.826,-266.8 326.826,-272.8 326.826,-278.8 326.826,-278.8 326.826,-329.2 326.826,-329.2 326.826,-335.2 320.826,-341.2 314.826,-341.2 314.826,-341.2 103.174,-341.2 103.174,-341.2 97.1738,-341.2 91.1738,-335.2 91.1738,-329.2 91.1738,-329.2 91.1738,-278.8 91.1738,-278.8 91.1738,-272.8 97.1738,-266.8 103.174,-266.8"/>
<text text-anchor="middle" x="209" y="-323.2" font-family="Times,serif" font-size="14.00">Video</text>
<polyline fill="none" stroke="black" points="91.1738,-316.4 326.826,-316.4 "/>
<text text-anchor="middle" x="209" y="-298.4" font-family="Times,serif" font-size="14.00">Fixed metadata (upload date, length,...)</text>
<polyline fill="none" stroke="black" points="91.1738,-291.6 326.826,-291.6 "/>
<text text-anchor="middle" x="209" y="-273.6" font-family="Times,serif" font-size="14.00">Reviews</text>
</g>
<!-- comment -->
<g id="node2" class="node"><title>comment</title>
<path fill="#ffffe0" stroke="black" d="M28.4023,-142.8C28.4023,-142.8 179.598,-142.8 179.598,-142.8 185.598,-142.8 191.598,-148.8 191.598,-154.8 191.598,-154.8 191.598,-205.2 191.598,-205.2 191.598,-211.2 185.598,-217.2 179.598,-217.2 179.598,-217.2 28.4023,-217.2 28.4023,-217.2 22.4023,-217.2 16.4023,-211.2 16.4023,-205.2 16.4023,-205.2 16.4023,-154.8 16.4023,-154.8 16.4023,-148.8 22.4023,-142.8 28.4023,-142.8"/>
<text text-anchor="middle" x="104" y="-199.2" font-family="Times,serif" font-size="14.00">Comment</text>
<polyline fill="none" stroke="black" points="16.4023,-192.4 191.598,-192.4 "/>
<text text-anchor="middle" x="104" y="-174.4" font-family="Times,serif" font-size="14.00">Textual comment on a video</text>
<polyline fill="none" stroke="black" points="16.4023,-167.6 191.598,-167.6 "/>
<text text-anchor="middle" x="104" y="-149.6" font-family="Times,serif" font-size="14.00">&lt;user&gt;</text>
</g>
<!-- video&#45;&gt;comment -->
<g id="edge1" class="edge"><title>video&#45;&gt;comment</title>
<path fill="none" stroke="#008b45" stroke-width="4" d="M177.781,-266.726C166.562,-253.692 153.783,-238.844 142.049,-225.209"/>
<polygon fill="#008b45" stroke="#008b45" points="144.456,-222.641 135.28,-217.345 139.151,-227.207 144.456,-222.641"/>
</g>
<!-- rating -->
<g id="node3" class="node"><title>rating</title>
<path fill="#ffffe0" stroke="black" d="M221.751,-142.8C221.751,-142.8 390.249,-142.8 390.249,-142.8 396.249,-142.8 402.249,-148.8 402.249,-154.8 402.249,-154.8 402.249,-205.2 402.249,-205.2 402.249,-211.2 396.249,-217.2 390.249,-217.2 390.249,-217.2 221.751,-217.2 221.751,-217.2 215.751,-217.2 209.751,-211.2 209.751,-205.2 209.751,-205.2 209.751,-154.8 209.751,-154.8 209.751,-148.8 215.751,-142.8 221.751,-142.8"/>
<text text-anchor="middle" x="306" y="-199.2" font-family="Times,serif" font-size="14.00">Star rating</text>
<polyline fill="none" stroke="black" points="209.751,-192.4 402.249,-192.4 "/>
<text text-anchor="middle" x="306" y="-174.4" font-family="Times,serif" font-size="14.00">Numerical comment on a video</text>
<polyline fill="none" stroke="black" points="209.751,-167.6 402.249,-167.6 "/>
<text text-anchor="middle" x="306" y="-149.6" font-family="Times,serif" font-size="14.00">&lt;user&gt;</text>
</g>
<!-- video&#45;&gt;rating -->
<g id="edge2" class="edge"><title>video&#45;&gt;rating</title>
<path fill="none" stroke="#008b45" stroke-width="4" d="M237.841,-266.726C248.204,-253.692 260.01,-238.844 270.85,-225.209"/>
<polygon fill="#008b45" stroke="#008b45" points="273.619,-227.35 277.103,-217.345 268.14,-222.994 273.619,-227.35"/>
</g>
<!-- user -->
<g id="node4" class="node"><title>user</title>
<path fill="#ffd39b" stroke="black" d="M479.762,-254.4C479.762,-254.4 676.238,-254.4 676.238,-254.4 682.238,-254.4 688.238,-260.4 688.238,-266.4 688.238,-266.4 688.238,-341.6 688.238,-341.6 688.238,-347.6 682.238,-353.6 676.238,-353.6 676.238,-353.6 479.762,-353.6 479.762,-353.6 473.762,-353.6 467.762,-347.6 467.762,-341.6 467.762,-341.6 467.762,-266.4 467.762,-266.4 467.762,-260.4 473.762,-254.4 479.762,-254.4"/>
<text text-anchor="middle" x="578" y="-335.6" font-family="Times,serif" font-size="14.00">User</text>
<polyline fill="none" stroke="black" points="467.762,-328.8 688.238,-328.8 "/>
<text text-anchor="middle" x="578" y="-310.8" font-family="Times,serif" font-size="14.00">Login data (passwords, auth)</text>
<polyline fill="none" stroke="black" points="467.762,-304 688.238,-304 "/>
<text text-anchor="middle" x="578" y="-286" font-family="Times,serif" font-size="14.00">Editable profile data (image, age, ...)</text>
<polyline fill="none" stroke="black" points="467.762,-279.2 688.238,-279.2 "/>
<text text-anchor="middle" x="578" y="-261.2" font-family="Times,serif" font-size="14.00">&lt;role&gt;</text>
</g>
<!-- role -->
<g id="node5" class="node"><title>role</title>
<path fill="#b3ee3a" stroke="black" d="M437.646,-142.8C437.646,-142.8 718.354,-142.8 718.354,-142.8 724.354,-142.8 730.354,-148.8 730.354,-154.8 730.354,-154.8 730.354,-205.2 730.354,-205.2 730.354,-211.2 724.354,-217.2 718.354,-217.2 718.354,-217.2 437.646,-217.2 437.646,-217.2 431.646,-217.2 425.646,-211.2 425.646,-205.2 425.646,-205.2 425.646,-154.8 425.646,-154.8 425.646,-148.8 431.646,-142.8 437.646,-142.8"/>
<text text-anchor="middle" x="578" y="-199.2" font-family="Times,serif" font-size="14.00">Role</text>
<polyline fill="none" stroke="black" points="425.646,-192.4 730.354,-192.4 "/>
<text text-anchor="middle" x="578" y="-174.4" font-family="Times,serif" font-size="14.00">Description (e.g. &quot;Teacher&quot;)</text>
<polyline fill="none" stroke="black" points="425.646,-167.6 730.354,-167.6 "/>
<text text-anchor="middle" x="578" y="-149.6" font-family="Times,serif" font-size="14.00">maps &lt;permission&gt; to true/false or numerical value</text>
</g>
<!-- user&#45;&gt;role -->
<g id="edge4" class="edge"><title>user:role&#45;&gt;role</title>
<path fill="none" stroke="#008b45" stroke-width="4" d="M578,-253C578,-244.735 578,-235.937 578,-227.432"/>
<polygon fill="#008b45" stroke="#008b45" points="581.5,-227.259 578,-217.259 574.5,-227.259 581.5,-227.259"/>
</g>
<!-- permission -->
<g id="node6" class="node"><title>permission</title>
<path fill="aquamarine" stroke="black" d="M497.371,-55.2C497.371,-55.2 658.629,-55.2 658.629,-55.2 664.629,-55.2 670.629,-61.2 670.629,-67.2 670.629,-67.2 670.629,-92.8 670.629,-92.8 670.629,-98.8 664.629,-104.8 658.629,-104.8 658.629,-104.8 497.371,-104.8 497.371,-104.8 491.371,-104.8 485.371,-98.8 485.371,-92.8 485.371,-92.8 485.371,-67.2 485.371,-67.2 485.371,-61.2 491.371,-55.2 497.371,-55.2"/>
<text text-anchor="middle" x="578" y="-86.8" font-family="Times,serif" font-size="14.00">Permission</text>
<polyline fill="none" stroke="black" points="485.371,-80 670.629,-80 "/>
<text text-anchor="middle" x="578" y="-62" font-family="Times,serif" font-size="14.00">Description (e.g: &quot;rate video&quot;)</text>
</g>
<!-- role&#45;&gt;permission -->
<g id="edge3" class="edge"><title>role:permission&#45;&gt;permission</title>
<path fill="none" stroke="#008b45" stroke-width="4" d="M578,-142C578,-133.342 578,-123.992 578,-115.276"/>
<polygon fill="#008b45" stroke="#008b45" points="581.5,-115.047 578,-105.047 574.5,-115.047 581.5,-115.047"/>
</g>
<!-- topic -->
<g id="node7" class="node"><title>topic</title>
<path fill="#ff7f24" stroke="black" d="M983.969,-254.4C983.969,-254.4 1200.03,-254.4 1200.03,-254.4 1206.03,-254.4 1212.03,-260.4 1212.03,-266.4 1212.03,-266.4 1212.03,-341.6 1212.03,-341.6 1212.03,-347.6 1206.03,-353.6 1200.03,-353.6 1200.03,-353.6 983.969,-353.6 983.969,-353.6 977.969,-353.6 971.969,-347.6 971.969,-341.6 971.969,-341.6 971.969,-266.4 971.969,-266.4 971.969,-260.4 977.969,-254.4 983.969,-254.4"/>
<text text-anchor="middle" x="1092" y="-335.6" font-family="Times,serif" font-size="14.00">Topic</text>
<polyline fill="none" stroke="black" points="971.969,-328.8 1212.03,-328.8 "/>
<text text-anchor="middle" x="1092" y="-310.8" font-family="Times,serif" font-size="14.00">General curricular topic without videos</text>
<polyline fill="none" stroke="black" points="971.969,-304 1212.03,-304 "/>
<text text-anchor="middle" x="1092" y="-286" font-family="Times,serif" font-size="14.00">Description (e.g. &quot;Linear Acceleration&quot;)</text>
<polyline fill="none" stroke="black" points="971.969,-279.2 1212.03,-279.2 "/>
<text text-anchor="middle" x="1092" y="-261.2" font-family="Times,serif" font-size="14.00">Parents [&lt;topic&gt;, &lt;topic&gt;, ...]</text>
</g>
<!-- item -->
<g id="node8" class="node"><title>item</title>
<path fill="#ffffe0" stroke="black" d="M766.057,-254.4C766.057,-254.4 941.943,-254.4 941.943,-254.4 947.943,-254.4 953.943,-260.4 953.943,-266.4 953.943,-266.4 953.943,-341.6 953.943,-341.6 953.943,-347.6 947.943,-353.6 941.943,-353.6 941.943,-353.6 766.057,-353.6 766.057,-353.6 760.057,-353.6 754.057,-347.6 754.057,-341.6 754.057,-341.6 754.057,-266.4 754.057,-266.4 754.057,-260.4 760.057,-254.4 766.057,-254.4"/>
<text text-anchor="middle" x="854" y="-335.6" font-family="Times,serif" font-size="14.00">Item</text>
<polyline fill="none" stroke="black" points="754.057,-328.8 953.943,-328.8 "/>
<text text-anchor="middle" x="854" y="-310.8" font-family="Times,serif" font-size="14.00">Small topic coverable by a video</text>
<polyline fill="none" stroke="black" points="754.057,-304 953.943,-304 "/>
<text text-anchor="middle" x="854" y="-286" font-family="Times,serif" font-size="14.00">Videos [&lt;video&gt;, &lt;video&gt;, ...]</text>
<polyline fill="none" stroke="black" points="754.057,-279.2 953.943,-279.2 "/>
<text text-anchor="middle" x="854" y="-261.2" font-family="Times,serif" font-size="14.00">Parents [&lt;topic&gt;, &lt;topic&gt;, ...]</text>
</g>
</g>
</svg>
